<?xml version="1.0" standalone="no"?>
<!DOCTYPE svg PUBLIC "-//W3C//DTD SVG 20010904//EN"
 "http://www.w3.org/TR/2001/REC-SVG-20010904/DTD/svg10.dtd">
<svg version="1.0" xmlns="http://www.w3.org/2000/svg"
 width="1024.000000pt" height="1024.000000pt" viewBox="0 0 1024.000000 1024.000000"
 preserveAspectRatio="xMidYMid meet">

<g transform="translate(0.000000,1024.000000) scale(0.100000,-0.100000)"
fill="#000000" stroke="none">
<path d="M5980 9008 c0 -22 -81 -96 -130 -117 -82 -35 -123 -34 -337 6 l-198
38 -310 0 c-341 0 -421 -8 -570 -56 -110 -35 -193 -88 -268 -171 -106 -118
-117 -128 -148 -128 -23 0 -34 8 -53 39 -14 21 -34 41 -45 44 -24 6 -56 -18
-65 -49 -8 -26 42 -84 71 -84 27 0 37 -25 11 -27 -25 -2 -105 -63 -105 -80 0
-20 51 -15 81 8 14 11 26 26 26 33 0 6 9 12 20 13 20 2 43 -27 39 -50 -4 -20
12 -65 26 -77 7 -6 32 -56 56 -111 23 -55 53 -111 65 -124 60 -65 65 -88 35
-156 -23 -51 -21 -55 66 -182 29 -43 53 -81 54 -85 0 -4 2 -15 4 -24 7 -38
-12 -39 -366 -23 -189 8 -357 17 -374 20 -16 2 -70 1 -118 -4 -75 -7 -93 -12
-124 -37 -20 -16 -49 -53 -66 -83 -53 -94 -58 -140 -51 -502 8 -363 5 -387
-53 -505 l-35 -72 4 -123 c2 -73 9 -134 17 -147 l12 -23 32 20 c31 20 56 68
78 151 4 19 9 253 9 519 0 528 3 560 58 648 25 40 52 57 52 33 0 -5 -5 -10
-12 -10 -6 0 -9 -3 -5 -6 3 -3 -8 -31 -26 -62 -27 -48 -32 -68 -35 -144 -4
-71 0 -104 21 -180 66 -243 112 -492 103 -559 -4 -25 -18 -75 -32 -110 -22
-56 -24 -73 -19 -134 4 -38 8 -90 11 -115 12 -136 23 -394 20 -455 -3 -39 -10
-84 -16 -100 -31 -78 -24 -82 113 -65 56 6 108 12 115 13 16 1 17 -1 -20 65
-32 56 -33 60 -36 202 -3 105 1 166 12 220 34 162 124 279 286 373 46 27 179
61 202 52 7 -3 49 -9 93 -15 105 -12 145 -21 145 -30 0 -5 15 -12 33 -15 29
-7 130 -43 182 -66 125 -54 214 -63 473 -49 228 13 239 12 291 -43 18 -21 24
-40 28 -98 4 -55 11 -80 27 -101 18 -23 72 -58 90 -58 11 0 6 37 -8 72 -8 18
-18 63 -22 98 -8 78 -22 108 -62 135 -25 16 -28 21 -16 30 11 8 16 45 21 153
3 79 9 144 12 146 3 2 8 -57 9 -133 3 -89 8 -145 17 -161 98 -179 115 -240
115 -400 0 -142 -11 -216 -40 -271 -24 -48 -20 -50 122 -48 l110 1 -28 29
c-24 25 -27 35 -26 94 2 81 13 124 66 250 28 66 47 129 55 185 6 47 19 109 27
139 15 51 162 346 170 338 7 -6 -36 -106 -95 -224 -50 -98 -61 -130 -66 -188
-6 -56 -4 -79 10 -110 12 -27 19 -72 21 -135 2 -52 12 -137 23 -187 25 -110
26 -146 6 -166 -12 -13 -12 -16 0 -20 11 -5 202 -10 237 -8 5 1 -8 21 -27 46
-60 79 -97 249 -77 351 11 53 78 184 102 199 5 3 47 59 94 124 99 138 147 184
230 221 134 61 219 61 421 3 198 -57 254 -57 322 2 69 59 66 81 -34 232 -57
87 -103 201 -103 254 0 50 30 88 102 130 70 41 108 80 108 110 0 19 -21 19
-95 -1 -75 -20 -115 -20 -172 1 -33 11 -95 23 -143 26 -73 5 -101 1 -200 -25
-63 -16 -135 -33 -160 -36 -66 -9 -245 19 -319 49 -58 24 -153 77 -106 60 169
-65 230 -79 350 -79 99 1 145 22 222 101 58 61 95 129 113 213 11 51 10 61
-14 129 -41 116 -33 151 32 151 37 0 72 15 72 31 0 6 -4 7 -10 4 -15 -9 -12
16 4 34 12 14 11 24 -11 76 -13 33 -26 73 -28 89 -3 16 -8 32 -12 35 -5 3 -9
14 -11 25 -7 39 -22 65 -45 81 -24 15 -27 14 -68 -14 -43 -29 -55 -45 -149
-210 -100 -174 -227 -253 -378 -238 -70 7 -195 68 -272 132 -92 76 -107 72
-130 -34 -10 -48 -10 -70 0 -113 16 -69 30 -93 80 -148 52 -55 46 -58 -102
-59 -123 -1 -130 2 -175 97 -23 49 -25 63 -21 150 6 139 37 193 148 258 56 33
72 37 172 45 126 11 206 37 290 92 71 47 163 147 178 193 14 41 7 53 -17 32
-10 -9 -36 -21 -58 -27 -47 -13 -87 6 -122 59 -29 42 -29 89 1 148 37 73 76
190 76 226 0 19 -8 43 -17 55 -18 21 -18 21 -53 -28 -19 -27 -48 -73 -65 -102
-31 -54 -66 -94 -99 -111 -23 -12 -17 -1 30 57 54 68 68 104 68 179 1 47 -3
70 -11 73 -7 3 -13 -2 -13 -9z m-790 -392 c0 -3 -4 -8 -10 -11 -5 -3 -10 -1
-10 4 0 6 5 11 10 11 6 0 10 -2 10 -4z m-589 -122 c13 13 42 -176 35 -236 -11
-111 -103 -249 -164 -247 -25 0 -25 1 -6 9 44 17 101 97 118 165 22 88 21 234
-3 310 -10 33 -16 66 -13 75 4 9 11 -4 17 -33 6 -27 13 -46 16 -43z m389 -84
c0 -5 -4 -10 -10 -10 -5 0 -10 5 -10 10 0 6 5 10 10 10 6 0 10 -4 10 -10z
m-885 -80 c3 -5 1 -10 -4 -10 -6 0 -11 5 -11 10 0 6 2 10 4 10 3 0 8 -4 11
-10z m1490 -159 c-3 -6 -14 -11 -23 -11 -15 1 -15 2 2 15 21 16 32 13 21 -4z
m-405 -18 c0 -14 -2 -15 -9 -5 -6 10 -10 9 -14 -7 -3 -12 -2 -21 3 -21 17 0
30 -120 19 -172 -8 -33 -8 -58 -1 -76 6 -15 13 -44 16 -65 3 -21 15 -54 27
-74 l23 -37 9 27 c5 15 13 27 18 27 6 0 7 6 4 13 -4 6 1 3 9 -7 9 -11 16 -32
16 -47 0 -30 27 -48 36 -24 4 8 14 15 23 14 10 0 12 -2 3 -6 -7 -3 -19 -17
-27 -33 -10 -20 -25 -30 -51 -35 -48 -8 -827 -9 -899 0 l-54 7 6 63 c5 52 2
73 -17 118 -29 71 -23 90 27 82 60 -10 76 -22 115 -89 29 -47 47 -66 78 -80
22 -9 53 -31 70 -47 25 -26 31 -28 36 -14 6 15 -12 101 -26 120 -18 25 -50
130 -50 164 0 46 18 65 89 92 63 23 110 24 221 3 47 -10 118 -17 159 -16 48 0
85 -5 103 -14 29 -15 29 -15 22 13 -4 15 -11 36 -15 45 -13 24 -11 72 3 86 17
17 28 15 28 -5z m-913 -15 c-3 -8 -6 -5 -6 6 -1 11 2 17 5 13 3 -3 4 -12 1
-19z m1243 -28 c0 -5 -2 -10 -4 -10 -3 0 -8 5 -11 10 -3 6 -1 10 4 10 6 0 11
-4 11 -10z m-1230 -20 c0 -5 -5 -10 -11 -10 -5 0 -7 5 -4 10 3 6 8 10 11 10 2
0 4 -4 4 -10z m2380 -144 c0 -3 -4 -8 -10 -11 -5 -3 -10 -1 -10 4 0 6 5 11 10
11 6 0 10 -2 10 -4z m-1333 -258 c-3 -8 -6 -5 -6 6 -1 11 2 17 5 13 3 -3 4
-12 1 -19z m-1926 -185 c-12 -20 -14 -14 -5 12 4 9 9 14 11 11 3 -2 0 -13 -6
-23z m1359 7 c0 -5 -4 -10 -10 -10 -5 0 -10 5 -10 10 0 6 5 10 10 10 6 0 10
-4 10 -10z m-1255 -210 c3 -5 1 -10 -4 -10 -6 0 -11 5 -11 10 0 6 2 10 4 10 3
0 8 -4 11 -10z m473 -182 c-3 -7 -13 -15 -24 -17 -16 -3 -17 -1 -5 13 16 19
34 21 29 4z m2732 -58 c0 -5 -5 -10 -11 -10 -5 0 -7 5 -4 10 3 6 8 10 11 10 2
0 4 -4 4 -10z m-255 -83 c17 -42 21 -157 5 -157 -5 0 -10 20 -10 45 0 25 -11
73 -25 107 -30 74 -30 71 -5 56 11 -7 26 -30 35 -51z m-2274 -84 c-12 -20 -14
-14 -5 12 4 9 9 14 11 11 3 -2 0 -13 -6 -23z m-30 -107 c-33 -119 -94 -236
-123 -236 -24 0 -23 10 6 49 20 27 99 196 120 255 4 10 9 16 12 13 3 -3 -4
-39 -15 -81z m2719 34 c0 -5 -2 -10 -4 -10 -3 0 -8 5 -11 10 -3 6 -1 10 4 10
6 0 11 -4 11 -10z m-3265 -280 c3 -5 1 -10 -4 -10 -6 0 -11 5 -11 10 0 6 2 10
4 10 3 0 8 -4 11 -10z m1199 -56 c3 -8 2 -12 -4 -9 -6 3 -10 10 -10 16 0 14 7
11 14 -7z"/>
<path d="M5171 7974 c0 -11 3 -14 6 -6 3 7 2 16 -1 19 -3 4 -6 -2 -5 -13z"/>
<path d="M3960 6482 c-14 -2 -41 -16 -60 -32 -20 -15 -59 -39 -88 -54 -29 -15
-55 -33 -58 -41 -7 -18 17 -104 55 -193 45 -107 101 -278 115 -352 11 -61 11
-67 -12 -107 l-24 -43 27 0 c34 0 213 19 244 26 l24 5 -26 27 c-32 33 -50 77
-88 207 -16 55 -44 141 -61 192 -34 101 -33 133 7 151 27 13 51 6 73 -21 9
-10 8 -18 -3 -33 -22 -30 -19 -63 8 -69 59 -15 137 53 202 176 35 66 36 71 21
94 -12 19 -35 28 -108 44 -90 20 -197 30 -248 23z"/>
<path d="M4758 5849 c-183 -9 -276 -23 -334 -51 -55 -25 -79 -58 -70 -94 l7
-27 172 6 c307 11 541 27 570 38 15 6 27 18 27 26 0 21 -58 73 -105 94 -43 20
-44 20 -267 8z"/>
<path d="M6187 5713 c-8 -27 -13 -51 -11 -55 2 -3 32 -9 66 -12 35 -4 95 -11
133 -17 39 -5 151 -20 250 -34 347 -47 720 -132 1065 -242 428 -136 819 -329
1272 -627 l27 -18 30 43 c38 51 38 52 -88 137 -229 156 -593 349 -871 460
-283 114 -620 215 -950 287 -285 61 -713 125 -842 125 l-67 0 -14 -47z"/>
<path d="M3170 5675 c-123 -29 -352 -89 -465 -122 -66 -20 -163 -48 -215 -64
-320 -94 -829 -315 -1099 -476 -140 -84 -308 -201 -316 -221 -5 -13 42 -92 55
-92 4 0 27 14 51 31 228 159 362 238 619 363 347 168 722 300 1140 401 243 58
307 76 325 89 14 10 14 15 -2 59 -9 26 -22 47 -28 46 -5 -1 -35 -7 -65 -14z"/>
<path d="M4909 5525 c-3 -2 -53 -5 -113 -6 -113 -1 -135 -11 -102 -45 37 -37
44 -69 56 -294 7 -124 13 -302 14 -397 1 -161 0 -173 -20 -195 -47 -52 -49
-51 112 -43 82 4 154 11 161 17 9 7 8 16 -8 37 -17 23 -21 53 -30 206 -12 197
-6 579 11 636 5 19 19 45 30 57 11 11 20 24 20 27 0 6 -125 7 -131 0z"/>
<path d="M5535 5506 c-170 -43 -301 -170 -356 -345 -81 -260 14 -511 231 -615
60 -29 73 -31 175 -31 97 0 116 3 160 25 57 29 77 60 83 136 4 43 0 57 -27
102 l-32 51 -48 -50 c-48 -50 -67 -57 -141 -50 -39 4 -93 38 -118 76 -101 146
-50 445 87 515 83 42 147 17 193 -74 37 -75 32 -70 56 -57 11 6 29 34 40 63
39 97 71 203 64 209 -4 4 -29 14 -57 22 -124 39 -219 46 -310 23z m305 -170
c0 -2 -8 -10 -17 -17 -16 -13 -17 -12 -4 4 13 16 21 21 21 13z"/>
<path d="M4375 5484 c-66 -8 -138 -18 -160 -22 l-40 -8 29 -24 c41 -36 52 -67
86 -261 17 -96 35 -192 40 -214 13 -54 12 -62 -4 -62 -7 0 -11 7 -9 17 4 16
-64 142 -157 290 -26 41 -67 108 -90 149 l-42 73 -72 -5 c-74 -6 -230 -26
-256 -34 -13 -4 -12 -6 2 -14 34 -19 68 -95 92 -209 118 -545 132 -655 91
-700 -24 -27 -18 -30 35 -20 25 4 86 13 135 20 125 16 124 15 87 51 -32 31
-48 85 -87 299 -9 47 -23 114 -31 150 -24 101 -26 112 -14 105 6 -4 9 -12 7
-18 -2 -7 10 -34 26 -62 17 -27 59 -99 94 -160 35 -60 92 -155 127 -210 73
-116 67 -113 218 -95 95 12 113 21 88 46 -23 23 -100 627 -100 784 0 79 2 88
25 110 14 13 25 27 25 32 0 9 9 10 -145 -8z m-30 -92 c-3 -3 -11 0 -18 7 -9
10 -8 11 6 5 10 -3 15 -9 12 -12z m115 -422 c0 -5 -5 -10 -11 -10 -5 0 -7 5
-4 10 3 6 8 10 11 10 2 0 4 -4 4 -10z"/>
<path d="M6033 5453 c-9 -3 -5 -19 13 -56 l26 -51 -16 -135 c-67 -549 -79
-613 -127 -673 -16 -20 -25 -39 -21 -42 5 -3 40 -10 78 -16 211 -33 329 -53
412 -71 52 -11 95 -19 97 -17 9 11 65 259 60 268 -10 17 -35 11 -66 -14 -40
-34 -118 -49 -199 -37 -36 5 -69 6 -74 3 -5 -3 -6 6 -3 19 3 13 11 66 18 117
6 50 15 92 18 92 3 0 37 -5 74 -10 79 -12 127 -33 128 -58 1 -28 16 31 34 138
9 56 15 104 12 107 -3 3 -26 -3 -51 -12 -34 -13 -62 -16 -107 -12 -33 3 -63 8
-67 12 -6 6 23 234 31 242 7 6 157 -26 205 -43 35 -13 47 -25 67 -65 14 -27
29 -49 33 -49 9 0 32 70 57 179 16 68 17 75 2 86 -32 23 -598 111 -634 98z"/>
<path d="M3220 5289 c-55 -6 -336 -79 -407 -106 -20 -8 -20 -9 12 -33 61 -46
58 -36 209 -570 67 -240 71 -259 56 -305 -7 -20 -10 -38 -8 -40 2 -2 52 11
111 30 59 19 123 37 142 41 41 7 43 14 14 40 -11 10 -27 34 -36 54 -12 29 -83
271 -83 285 0 13 71 15 102 2 62 -26 131 -142 128 -215 -3 -71 -5 -90 -11 -86
-8 4 -21 -38 -14 -44 4 -4 306 67 314 74 2 2 -11 20 -30 41 -19 21 -47 70 -63
108 -16 39 -35 77 -41 85 -7 8 -15 23 -18 33 -10 27 -96 77 -136 78 l-36 1 32
9 c36 10 79 57 101 109 21 50 11 180 -18 248 -36 84 -128 152 -220 164 -19 2
-64 1 -100 -3z m90 -123 c0 -3 -4 -8 -10 -11 -5 -3 -10 -1 -10 4 0 6 5 11 10
11 6 0 10 -2 10 -4z m-270 -56 c0 -5 -2 -10 -4 -10 -3 0 -8 5 -11 10 -3 6 -1
10 4 10 6 0 11 -4 11 -10z m254 -11 c14 -11 33 -34 41 -49 20 -38 19 -129 0
-157 -14 -20 -109 -63 -139 -63 -7 0 -25 47 -46 123 -18 67 -35 127 -37 133
-5 14 56 32 113 33 28 1 50 -6 68 -20z m313 -595 c-3 -3 -12 -4 -19 -1 -8 3
-5 6 6 6 11 1 17 -2 13 -5z"/>
<path d="M6867 5244 c-3 -3 -2 -17 4 -31 17 -45 9 -93 -46 -301 -111 -418
-128 -468 -177 -514 -17 -16 -28 -31 -25 -34 5 -5 231 -71 293 -86 20 -5 20
-4 6 39 -16 47 -14 59 40 236 18 61 22 67 41 61 55 -16 85 -74 79 -154 -5 -67
-35 -151 -64 -180 -33 -33 -34 -36 -10 -43 9 -3 75 -23 146 -46 71 -22 131
-39 134 -37 2 3 -1 20 -6 38 -6 18 -12 99 -15 179 -3 109 -8 154 -20 179 -10
18 -17 34 -17 35 0 2 14 5 31 9 42 8 113 61 143 106 56 85 72 216 35 295 -48
102 -162 160 -454 231 -111 27 -109 26 -118 18z m277 -233 c68 -25 96 -60 96
-117 0 -60 -21 -106 -60 -134 -28 -20 -40 -22 -96 -17 -36 2 -67 7 -70 9 -6 6
68 278 75 278 3 0 28 -8 55 -19z m-286 -686 c-3 -3 -9 2 -12 12 -6 14 -5 15 5
6 7 -7 10 -15 7 -18z"/>
<path d="M7970 5099 c-16 -27 -27 -55 -24 -63 8 -21 186 -107 199 -96 6 5 22
32 35 60 29 63 27 65 -93 112 l-87 35 -30 -48z"/>
<path d="M2380 5049 c-30 -11 -84 -31 -120 -44 -71 -25 -261 -103 -267 -109
-2 -2 9 -17 24 -33 32 -35 60 -104 103 -258 40 -142 66 -229 135 -455 32 -102
57 -199 57 -217 l-1 -31 92 40 c51 22 107 47 126 55 l34 14 -36 35 c-27 26
-43 58 -66 127 -17 51 -31 95 -31 99 0 3 17 12 38 19 20 6 59 22 86 35 28 13
51 24 52 24 12 0 69 -75 89 -115 18 -38 23 -60 19 -92 -3 -24 -2 -43 2 -43 17
0 274 105 274 111 0 4 -12 17 -27 27 -16 11 -46 46 -68 77 -22 31 -56 78 -75
105 -19 27 -77 111 -129 187 -52 76 -132 191 -179 256 -82 116 -84 120 -77
163 3 24 5 44 3 44 -2 -1 -28 -10 -58 -21z m18 -363 c84 -120 132 -194 132
-204 0 -15 -138 -58 -149 -46 -12 12 -93 309 -99 359 l-4 40 38 -44 c22 -24
58 -72 82 -105z m98 99 c-11 -8 -25 -15 -30 -15 -6 1 0 7 14 15 32 19 40 18
16 0z m184 -325 c0 -5 -2 -10 -4 -10 -3 0 -8 5 -11 10 -3 6 -1 10 4 10 6 0 11
-4 11 -10z m-173 -56 c-3 -3 -12 -4 -19 -1 -8 3 -5 6 6 6 11 1 17 -2 13 -5z"/>
<path d="M7775 4939 c17 -78 8 -116 -113 -454 -69 -194 -121 -314 -155 -357
-8 -10 -27 -24 -42 -32 l-28 -15 119 -56 c151 -71 159 -72 156 -20 -3 40 12
80 180 495 90 221 99 239 145 280 l45 39 -152 75 c-84 42 -154 76 -157 76 -2
0 -2 -14 2 -31z"/>
<path d="M1560 4656 c-119 -34 -204 -99 -243 -184 -18 -39 -22 -65 -21 -152 0
-91 4 -116 31 -190 77 -216 203 -389 328 -449 110 -54 268 -36 390 45 56 38
122 112 131 150 8 30 -21 109 -62 172 -34 51 -54 60 -54 23 0 -54 -60 -131
-127 -165 -106 -53 -243 26 -341 196 -88 154 -100 283 -33 352 44 46 87 53
146 25 25 -12 56 -35 68 -51 26 -33 36 -28 55 31 15 44 -1 107 -39 154 -44 53
-133 70 -229 43z m150 -126 c0 -5 -5 -10 -11 -10 -5 0 -7 5 -4 10 3 6 8 10 11
10 2 0 4 -4 4 -10z m105 -840 c3 -5 1 -10 -4 -10 -6 0 -11 5 -11 10 0 6 2 10
4 10 3 0 8 -4 11 -10z"/>
<path d="M8470 4633 c0 -10 -8 -31 -19 -48 -53 -86 -462 -522 -576 -613 l-74
-60 32 -24 c36 -27 142 -91 170 -101 11 -4 17 -2 17 7 0 32 40 104 83 151 l46
50 105 -54 c58 -30 106 -57 106 -60 0 -3 -16 -37 -35 -76 -39 -76 -75 -115
-106 -115 -42 0 -13 -21 120 -89 l138 -70 6 49 c3 27 12 62 21 77 8 16 80 201
161 412 l148 383 -33 28 c-35 30 -282 170 -299 170 -6 0 -11 -8 -11 -17z m44
-369 c-36 -93 -71 -184 -76 -202 -9 -32 -10 -33 -31 -18 -12 8 -41 25 -64 36
-47 24 -54 43 -23 62 24 15 148 158 209 241 23 32 45 57 47 54 3 -2 -25 -80
-62 -173z"/>
<path d="M4433 4210 c-144 -3 -264 -8 -267 -11 -6 -5 -10 -91 -7 -145 1 -15
12 -24 43 -33 58 -18 95 -48 119 -99 19 -38 23 -71 30 -251 11 -268 13 -932 4
-996 -10 -66 -26 -96 -76 -138 -84 -72 -201 -68 -269 9 -54 62 -60 90 -60 270
0 182 -2 187 -68 201 -20 4 -84 8 -142 7 -92 0 -112 -3 -155 -24 -73 -37 -89
-75 -93 -225 -6 -192 35 -312 145 -422 70 -71 149 -114 262 -145 62 -18 104
-21 226 -21 133 0 160 3 240 27 212 64 362 225 410 441 12 55 18 188 25 615 6
300 15 574 20 609 14 82 32 107 99 140 l56 27 -4 79 c-2 45 -8 83 -15 87 -6 5
-67 7 -136 5 -69 -1 -243 -4 -387 -7z m317 -124 c0 -3 -4 -8 -10 -11 -5 -3
-10 -1 -10 4 0 6 5 11 10 11 6 0 10 -2 10 -4z m-290 -59 c0 -4 -6 -2 -14 5 -8
7 -12 17 -9 22 5 8 23 -12 23 -27z m-10 -817 c0 -5 -5 -10 -11 -10 -5 0 -7 5
-4 10 3 6 8 10 11 10 2 0 4 -4 4 -10z m305 -420 c3 -5 1 -10 -4 -10 -6 0 -11
5 -11 10 0 6 2 10 4 10 3 0 8 -4 11 -10z m-65 -80 c0 -5 -2 -10 -4 -10 -3 0
-8 5 -11 10 -3 6 -1 10 4 10 6 0 11 -4 11 -10z m-55 -170 c3 -5 1 -10 -4 -10
-6 0 -11 5 -11 10 0 6 2 10 4 10 3 0 8 -4 11 -10z m-740 -158 c-3 -3 -11 0
-18 7 -9 10 -8 11 6 5 10 -3 15 -9 12 -12z"/>
<path d="M5109 4214 c-20 -6 -29 -45 -29 -120 l0 -53 59 -26 c50 -23 63 -34
87 -78 l29 -52 3 -630 c3 -606 2 -632 -16 -676 -24 -56 -72 -105 -111 -114
-47 -10 -52 -24 -49 -136 l3 -104 405 0 405 0 0 110 0 110 -55 12 c-45 9 -62
20 -96 57 -35 38 -44 56 -52 108 -19 110 -14 346 7 334 16 -10 412 15 471 29
347 85 523 422 415 797 -42 147 -153 281 -280 342 -169 80 -232 87 -745 91
-239 2 -442 1 -451 -1z m1031 -148 c0 -3 -4 -8 -10 -11 -5 -3 -10 -1 -10 4 0
6 5 11 10 11 6 0 10 -2 10 -4z m-213 -135 c71 -19 123 -68 167 -153 36 -70 39
-85 44 -175 5 -123 -18 -196 -83 -259 -58 -56 -117 -75 -252 -81 l-113 -6 -2
294 c-1 162 -3 319 -4 349 l-1 55 101 -6 c55 -4 120 -12 143 -18z m303 -151
c0 -5 -2 -10 -4 -10 -3 0 -8 5 -11 10 -3 6 -1 10 4 10 6 0 11 -4 11 -10z
m-630 -1520 c0 -5 -5 -10 -11 -10 -5 0 -7 5 -4 10 3 6 8 10 11 10 2 0 4 -4 4
-10z"/>
<path d="M3585 4129 c-321 -58 -723 -198 -1040 -363 -239 -124 -506 -300 -752
-495 -41 -32 -42 -58 -5 -109 15 -22 42 -61 61 -88 204 -290 600 -660 797
-744 67 -29 85 -25 111 25 15 30 7 41 -60 82 -156 93 -382 291 -527 462 -30
35 -83 96 -118 135 -79 89 -116 150 -105 170 14 25 207 172 343 262 252 166
509 294 799 398 160 57 426 128 532 142 76 10 89 18 89 60 0 73 -18 82 -125
63z"/>
<path d="M6718 4031 c-5 -14 -11 -39 -12 -55 -1 -28 3 -31 49 -43 250 -67 472
-138 563 -179 29 -13 80 -36 115 -50 301 -127 797 -439 797 -501 0 -24 -67
-128 -139 -218 -152 -188 -352 -383 -533 -520 -51 -38 -88 -73 -88 -83 0 -9
11 -30 24 -47 l24 -30 38 19 c73 34 270 191 402 321 195 190 442 504 458 581
7 34 3 38 -111 116 -343 234 -412 275 -668 403 -281 141 -673 280 -855 305
-51 7 -54 6 -64 -19z"/>
<path d="M2455 2167 c-14 -5 -25 -12 -25 -16 0 -8 92 -151 157 -244 26 -38 56
-81 66 -97 l18 -28 -90 -137 c-108 -164 -138 -222 -123 -237 11 -11 566 -13
583 -2 5 3 9 128 9 277 0 155 5 288 10 309 12 42 51 79 115 107 45 20 60 50
34 66 -16 10 -725 11 -754 2z m620 -77 c3 -5 1 -10 -4 -10 -6 0 -11 5 -11 10
0 6 2 10 4 10 3 0 8 -4 11 -10z m-54 -83 c-10 -9 -11 -8 -5 6 3 10 9 15 12 12
3 -3 0 -11 -7 -18z m-104 -319 c-3 -8 -6 -5 -6 6 -1 11 2 17 5 13 3 -3 4 -12
1 -19z m-17 -208 c0 -5 -7 -7 -15 -4 -8 4 -15 8 -15 10 0 2 7 4 15 4 8 0 15
-4 15 -10z"/>
<path d="M7011 2168 c-20 -6 -31 -15 -31 -26 0 -25 10 -34 63 -61 92 -47 91
-43 97 -385 l5 -300 284 2 c155 1 287 5 292 8 19 12 7 53 -32 110 -106 151
-189 277 -189 288 0 6 34 53 75 105 96 120 153 203 161 235 l6 26 -103 1
c-443 5 -600 4 -628 -3z m499 -22 c0 -3 -4 -8 -10 -11 -5 -3 -10 -1 -10 4 0 6
5 11 10 11 6 0 10 -2 10 -4z"/>
<path d="M5090 2003 c-1824 -3 -1956 -4 -1967 -20 -10 -13 -13 -104 -13 -375
l0 -358 1568 -1 c862 -1 1750 -3 1974 -4 224 -1 413 2 419 6 8 5 11 103 10
365 -2 330 -7 399 -29 392 -4 -2 -887 -4 -1962 -5z m1660 -83 c0 -5 -5 -10
-11 -10 -5 0 -7 5 -4 10 3 6 8 10 11 10 2 0 4 -4 4 -10z m-400 -30 c0 -5 -4
-10 -10 -10 -5 0 -10 5 -10 10 0 6 5 10 10 10 6 0 10 -4 10 -10z m-1923 -26
c-3 -3 -12 -4 -19 -1 -8 3 -5 6 6 6 11 1 17 -2 13 -5z m1143 -154 c0 -5 -2
-10 -4 -10 -3 0 -8 5 -11 10 -3 6 -1 10 4 10 6 0 11 -4 11 -10z"/>
</g>
</svg>
